<?xml version="1.0" standalone="no"?>
<!DOCTYPE svg PUBLIC "-//W3C//DTD SVG 20010904//EN"
 "http://www.w3.org/TR/2001/REC-SVG-20010904/DTD/svg10.dtd">
<svg version="1.0" xmlns="http://www.w3.org/2000/svg"
 width="300.000000pt" height="300.000000pt" viewBox="0 0 300.000000 300.000000"
 preserveAspectRatio="xMidYMid meet">
<metadata>
Created by potrace 1.11, written by Peter Selinger 2001-2013
</metadata>
<g transform="translate(0.000000,300.000000) scale(0.100000,-0.100000)"
fill="#000000" stroke="none">
<path d="M1450 2942 c-71 -38 -70 -25 -70 -617 l0 -530 -274 274 c-150 151
-284 280 -297 287 -98 54 -217 -64 -165 -163 8 -15 166 -179 350 -363 l336
-335 -337 -336 c-185 -186 -342 -348 -349 -361 -29 -52 -7 -124 49 -158 36
-23 69 -25 110 -7 15 7 151 135 302 286 l275 275 0 -533 c0 -585 -1 -579 60
-614 36 -22 87 -24 120 -7 14 7 50 34 81 59 31 25 114 91 184 146 70 55 164
129 209 165 44 36 134 107 198 158 146 115 171 159 134 230 -8 15 -166 178
-350 362 l-335 334 336 337 c185 185 343 349 351 364 9 19 12 41 7 71 -5 36
-14 51 -53 83 -46 39 -457 362 -522 411 -19 14 -48 36 -64 50 -80 66 -169 132
-192 140 -36 14 -55 12 -94 -8z m408 -545 c111 -87 202 -162 202 -165 0 -4
-97 -104 -215 -222 l-215 -215 0 388 c0 308 3 387 13 381 6 -4 103 -79 215
-167z m201 -1642 c0 -5 -97 -85 -215 -177 l-214 -168 0 393 0 392 215 -215
c118 -118 215 -219 214 -225z"/>
</g>
</svg>
